<svg width="2172" height="1634" viewBox="0 0 2172 1634" fill="none" xmlns="http://www.w3.org/2000/svg">
<path d="M2299 0H0V1314.92H2299V0Z" fill="white"/>
<path d="M2299 877.004C2240.16 798.453 2158.6 730.829 2063.92 680.556C1913.66 600.786 1737.52 550.419 1558.28 553.186C1390.48 555.765 1212.93 624.609 1121.76 767.267C1047.76 883.1 1025.14 990.867 905.314 1077.39C822.545 1137.14 689.548 1156.97 648.242 1240.64C636.643 1264.08 634.491 1289.08 637.063 1314.36H2299V877.004Z" fill="#EBF5FF"/>
<path d="M1239.43 741.286C1247.78 734.486 1256.7 735.706 1261.27 737.019C1265.31 727.733 1274.02 717.135 1292.71 717.135C1326.03 717.135 1328.66 746.398 1328.66 746.398C1352.12 740.067 1356.63 758.591 1356.63 759.341H1230.62C1230.67 747.383 1239.43 741.286 1239.43 741.286Z" fill="white"/>
<path d="M1874.24 794.982C1880.33 794.982 1886.05 796.483 1891.03 799.015C1900.53 784.243 1918.01 774.301 1938.06 774.301C1956.8 774.301 1973.28 782.93 1983.09 796.108C1988.29 780.257 2004.3 768.673 2023.35 768.673C2044.92 768.673 2062.66 783.586 2065.07 802.72C2066.81 802.486 2068.59 802.298 2070.38 802.298C2083.55 802.298 2094.94 809.098 2100.66 819.087H1840.96C1844.48 805.299 1858.02 794.982 1874.24 794.982Z" fill="white"/>
<path d="M1708.23 232.135C1718.14 232.135 1726.18 224.955 1726.18 216.097C1726.18 207.239 1718.14 200.059 1708.23 200.059C1698.32 200.059 1690.28 207.239 1690.28 216.097C1690.28 224.955 1698.32 232.135 1708.23 232.135Z" fill="#EBF5FF"/>
<path d="M1313.8 550.982C1313.8 556.891 1308.45 561.721 1301.79 561.721C1295.17 561.721 1289.77 556.938 1289.77 550.982C1289.77 545.073 1295.12 540.243 1301.79 540.243C1308.45 540.243 1313.8 545.073 1313.8 550.982Z" fill="#84B4FE"/>
<path d="M1793.67 494.613L1786.48 491.189C1786.01 490.955 1785.64 490.627 1785.43 490.252L1781.6 483.827C1780.61 482.185 1778.03 482.185 1777.04 483.827L1773.21 490.252C1772.94 490.674 1772.58 491.002 1772.16 491.189L1764.97 494.613C1763.13 495.504 1763.13 497.802 1764.97 498.693L1772.16 502.116C1772.63 502.351 1773 502.679 1773.21 503.054L1777.04 509.479C1778.03 511.12 1780.61 511.12 1781.6 509.479L1785.43 503.054C1785.7 502.632 1786.06 502.304 1786.48 502.116L1793.67 498.693C1795.51 497.802 1795.51 495.457 1793.67 494.613Z" fill="#EBF5FF"/>
<path d="M1369.91 279.594L1360.83 275.233C1360.25 274.952 1359.78 274.529 1359.52 274.061L1354.64 265.948C1353.43 263.884 1350.12 263.884 1348.86 265.948L1343.98 274.061C1343.67 274.576 1343.2 274.998 1342.67 275.233L1333.59 279.594C1331.28 280.673 1331.28 283.627 1333.59 284.753L1342.67 289.114C1343.25 289.396 1343.72 289.818 1343.98 290.287L1348.86 298.4C1350.07 300.463 1353.38 300.463 1354.64 298.4L1359.52 290.287C1359.83 289.771 1360.31 289.349 1360.83 289.114L1369.91 284.753C1372.17 283.627 1372.17 280.673 1369.91 279.594Z" fill="#C1DDF7"/>
<path d="M1998.68 442.23L1987.71 436.977C1987.03 436.649 1986.45 436.133 1986.08 435.524L1980.21 425.722C1978.74 423.237 1974.75 423.237 1973.28 425.722L1967.4 435.524C1967.03 436.133 1966.46 436.649 1965.77 436.977L1954.8 442.23C1952.02 443.543 1952.02 447.107 1954.8 448.42L1965.77 453.672C1966.46 454.001 1967.03 454.517 1967.4 455.126L1973.28 464.928C1974.75 467.413 1978.74 467.413 1980.21 464.928L1986.08 455.126C1986.45 454.517 1987.03 454.001 1987.71 453.672L1998.68 448.42C2001.46 447.154 2001.46 443.59 1998.68 442.23Z" fill="#C1DDF7"/>
<path d="M1144.33 404.526L1134.31 399.695C1133.68 399.414 1133.15 398.945 1132.84 398.382L1127.43 389.425C1126.07 387.174 1122.44 387.174 1121.08 389.425L1115.67 398.382C1115.36 398.945 1114.83 399.414 1114.2 399.695L1104.18 404.526C1101.66 405.745 1101.66 408.981 1104.18 410.2L1114.2 415.03C1114.83 415.312 1115.36 415.781 1115.67 416.343L1121.08 425.3C1122.44 427.551 1126.07 427.551 1127.43 425.3L1132.84 416.343C1133.15 415.781 1133.68 415.312 1134.31 415.03L1144.33 410.2C1146.9 409.028 1146.9 405.745 1144.33 404.526Z" fill="#84B4FE"/>
<path d="M1814.51 348.625L1807.16 345.108C1806.69 344.874 1806.32 344.545 1806.06 344.123L1802.12 337.558C1801.13 335.917 1798.45 335.917 1797.45 337.558L1793.52 344.123C1793.25 344.545 1792.89 344.874 1792.41 345.108L1785.07 348.625C1783.23 349.516 1783.23 351.908 1785.07 352.799L1792.41 356.316C1792.89 356.551 1793.25 356.879 1793.52 357.301L1797.45 363.867C1798.45 365.508 1801.13 365.508 1802.12 363.867L1806.06 357.301C1806.32 356.879 1806.69 356.551 1807.16 356.316L1814.51 352.799C1816.35 351.908 1816.35 349.516 1814.51 348.625Z" fill="#84B4FE"/>
<path d="M1610.13 822.51H1505.53V1261.41H1610.13V822.51Z" fill="white"/>
<path d="M1597.8 847.553C1597.8 828.7 1580.69 813.365 1559.54 813.365C1538.44 813.365 1521.28 828.653 1521.28 847.553C1521.28 847.553 1516.34 928.355 1559.54 971.358C1602.73 928.401 1597.8 847.553 1597.8 847.553Z" fill="#EBF5FF"/>
<path d="M1425.96 662.501C1425.96 662.501 1282.73 724.45 1339.47 907.251C1339.47 907.251 1369.75 815.382 1466.96 791.606L1425.96 662.501Z" fill="#84B4FE"/>
<path d="M1694.43 662.501C1694.43 662.501 1837.66 724.45 1780.92 907.251C1780.92 907.251 1750.64 815.382 1653.43 791.606L1694.43 662.501Z" fill="#84B4FE"/>
<path d="M1606.67 829.685H1509.31C1505.48 829.685 1502.12 827.294 1501.28 823.964L1495.93 802.908C1494.77 798.312 1498.66 793.95 1503.96 793.95H1611.97C1617.27 793.95 1621.16 798.312 1620 802.908L1614.65 823.964C1613.86 827.34 1610.5 829.685 1606.67 829.685Z" fill="#214A81"/>
<path d="M1417.51 613.166C1417.51 613.166 1432.47 735.752 1478.66 813.412C1478.66 813.412 1551.98 781.851 1638.95 813.412C1638.95 813.412 1691.91 747.898 1702.77 603.459C1709.02 520.218 1701.56 425.207 1670.7 343.373H1455.25C1426.54 410.059 1406.13 499.584 1417.51 613.166Z" fill="#C1DDF7"/>
<path d="M1542.9 210.516C1521.22 232.417 1484.07 276.312 1455.25 343.326H1670.7C1650.97 290.943 1621.68 243.953 1580.22 208.875C1569.51 199.918 1552.61 200.715 1542.9 210.516Z" fill="#214A81"/>
<path d="M1556.34 607.21C1556.34 607.21 1490.26 741.38 1556.34 900.874C1556.34 900.92 1629.82 767.829 1556.34 607.21Z" fill="#84B4FE"/>
<path d="M1562.53 557.032C1608.45 557.032 1645.67 523.774 1645.67 482.748C1645.67 441.723 1608.45 408.465 1562.53 408.465C1516.62 408.465 1479.39 441.723 1479.39 482.748C1479.39 523.774 1516.62 557.032 1562.53 557.032Z" fill="#214A81"/>
<path d="M1618.79 494.551C1626.08 466.816 1606.83 439.051 1575.79 432.535C1544.75 426.019 1513.67 443.221 1506.38 470.956C1499.09 498.691 1518.34 526.457 1549.38 532.972C1580.42 539.488 1611.49 522.286 1618.79 494.551Z" fill="#FFD474"/>
<path d="M1414.31 1387.42C1481.5 1387.42 1535.97 1339.42 1535.97 1280.22C1535.97 1221.01 1481.5 1173.01 1414.31 1173.01C1347.12 1173.01 1292.65 1221.01 1292.65 1280.22C1292.65 1339.42 1347.12 1387.42 1414.31 1387.42Z" fill="white"/>
<path d="M1786.54 1376.26C1846.74 1376.26 1895.55 1333.26 1895.55 1280.22C1895.55 1227.17 1846.74 1184.17 1786.54 1184.17C1726.33 1184.17 1677.53 1227.17 1677.53 1280.22C1677.53 1333.26 1726.33 1376.26 1786.54 1376.26Z" fill="white"/>
<path d="M1606.72 1272.06C1653.8 1272.06 1691.96 1238.44 1691.96 1196.98C1691.96 1155.51 1653.8 1121.89 1606.72 1121.89C1559.65 1121.89 1521.49 1155.51 1521.49 1196.98C1521.49 1238.44 1559.65 1272.06 1606.72 1272.06Z" fill="white"/>
<path d="M1451.37 1203.73C1484.15 1203.73 1510.73 1180.32 1510.73 1151.44C1510.73 1122.56 1484.15 1099.15 1451.37 1099.15C1418.58 1099.15 1392.01 1122.56 1392.01 1151.44C1392.01 1180.32 1418.58 1203.73 1451.37 1203.73Z" fill="white"/>
<path d="M1602.79 1143.94C1625.19 1143.94 1643.36 1127.94 1643.36 1108.2C1643.36 1088.47 1625.19 1072.47 1602.79 1072.47C1580.38 1072.47 1562.22 1088.47 1562.22 1108.2C1562.22 1127.94 1580.38 1143.94 1602.79 1143.94Z" fill="white"/>
<path d="M1530.62 1259.53C1570.33 1259.53 1602.52 1231.17 1602.52 1196.18C1602.52 1161.19 1570.33 1132.82 1530.62 1132.82C1490.91 1132.82 1458.72 1161.19 1458.72 1196.18C1458.72 1231.17 1490.91 1259.53 1530.62 1259.53Z" fill="white"/>
<path d="M956.591 1634C1078.02 1634 1176.45 1547.29 1176.45 1440.32C1176.45 1333.35 1078.02 1246.64 956.591 1246.64C835.166 1246.64 736.732 1333.35 736.732 1440.32C736.732 1547.29 835.166 1634 956.591 1634Z" fill="white"/>
<path d="M1220.54 1474.55C1311.59 1474.55 1385.39 1409.55 1385.39 1329.36C1385.39 1249.18 1311.59 1184.17 1220.54 1184.17C1129.49 1184.17 1055.68 1249.18 1055.68 1329.36C1055.68 1409.55 1129.49 1474.55 1220.54 1474.55Z" fill="white"/>
<path d="M2026.71 1633.44C2155.38 1633.44 2259.69 1541.54 2259.69 1428.17C2259.69 1314.81 2155.38 1222.91 2026.71 1222.91C1898.04 1222.91 1793.73 1314.81 1793.73 1428.17C1793.73 1541.54 1898.04 1633.44 2026.71 1633.44Z" fill="white"/>
<path d="M1448.85 1525.29C1539.9 1525.29 1613.7 1460.29 1613.7 1380.1C1613.7 1299.92 1539.9 1234.91 1448.85 1234.91C1357.8 1234.91 1283.99 1299.92 1283.99 1380.1C1283.99 1460.29 1357.8 1525.29 1448.85 1525.29Z" fill="white"/>
<path d="M1646.93 1525.29C1749.25 1525.29 1832.2 1452.23 1832.2 1362.1C1832.2 1271.96 1749.25 1198.9 1646.93 1198.9C1544.6 1198.9 1461.65 1271.96 1461.65 1362.1C1461.65 1452.23 1544.6 1525.29 1646.93 1525.29Z" fill="white"/>
</svg>
